<svg width="732" height="325" viewBox="0 0 732 325" fill="none" xmlns="http://www.w3.org/2000/svg">
<g filter="url(#filter0_d_518_2051)">
<path d="M245.125 205.88C241.466 209.931 237.35 211.956 232.777 211.956C225.198 211.956 216.313 209.343 206.121 204.116C195.929 198.889 187.109 192.748 179.661 185.692C172.344 178.505 168.685 172.299 168.685 167.072V139.436C164.896 140.481 161.433 141.004 158.297 141.004C150.196 141.004 141.702 137.933 132.817 131.792C129.158 136.888 124.65 140.677 119.293 143.16C114.066 145.512 108.382 146.688 102.241 146.688C100.02 146.688 98.3211 146.623 97.1451 146.492C107.86 161.78 117.856 173.736 127.133 182.36C136.541 190.984 144.25 195.296 150.261 195.296C153.397 195.296 156.468 193.271 159.473 189.22L172.605 199.804C170.776 201.895 168.424 203.528 165.549 204.704C162.674 206.011 159.734 206.664 156.729 206.664C149.02 206.664 138.632 200.849 125.565 189.22C112.498 177.591 100.804 164.393 90.4811 149.628C80.2891 134.863 75.1931 123.495 75.1931 115.524C75.1931 111.604 76.9571 108.337 80.4851 105.724C84.0131 103.111 88.0638 101.804 92.6371 101.804C97.2105 101.804 101.653 103.895 105.965 108.076C110.408 112.127 113.87 117.549 116.353 124.344C119.228 122.645 121.449 120.424 123.017 117.68C124.716 114.805 125.565 111.735 125.565 108.468C125.565 103.895 124.389 99.1907 122.037 94.356C119.685 89.3907 116.418 84.8173 112.237 80.636H64.6091V64.956H107.533L122.037 80.636C126.48 85.4707 130.138 91.0893 133.013 97.492C136.018 103.764 137.586 109.775 137.717 115.524C137.717 118.791 137.064 122.253 135.757 125.912C139.416 128.264 143.858 129.44 149.085 129.44C155.618 129.44 162.152 127.872 168.685 124.736V80.636H131.053L116.549 64.956H169.077L184.953 80.636V178.244C184.953 181.119 187.044 184.516 191.225 188.436C195.406 192.225 200.306 195.557 205.925 198.432C211.674 201.176 216.509 202.548 220.429 202.548C224.218 202.548 227.681 200.588 230.817 196.668L245.125 205.88ZM193.773 80.636L178.093 64.956H207.493V80.636H193.773ZM92.6371 132.184C99.4318 132.184 105.769 130.616 111.649 127.48C110.604 124.213 108.709 121.404 105.965 119.052C103.352 116.7 100.673 115.524 97.9291 115.524C95.0545 115.524 92.3758 116.373 89.8931 118.072C87.5411 119.64 86.3651 121.469 86.3651 123.56C86.3651 125.781 86.9531 127.807 88.1291 129.636C89.4358 131.335 90.9385 132.184 92.6371 132.184ZM298.662 80.636V178.244C298.662 181.119 300.753 184.516 304.934 188.436C309.246 192.225 314.277 195.557 320.026 198.432C325.776 201.176 330.61 202.548 334.53 202.548C338.189 202.548 341.586 200.588 344.722 196.668L359.03 205.88C355.241 209.931 351.06 211.956 346.486 211.956C339.038 211.956 330.218 209.343 320.026 204.116C309.834 199.02 301.014 192.944 293.566 185.888C286.118 178.701 282.394 172.56 282.394 167.464V138.652H242.998V152.764C242.998 154.071 242.606 155.116 241.822 155.9C241.038 156.684 239.993 157.076 238.686 157.076C236.334 157.076 232.61 155.116 227.514 151.196C222.549 147.276 217.976 142.964 213.794 138.26C209.613 133.425 207.522 129.832 207.522 127.48C207.522 126.304 208.045 125.324 209.09 124.54C210.266 123.756 211.638 123.364 213.206 123.364H226.73V80.636H200.27V64.956H282.786L298.662 80.636ZM321.398 80.636H307.678L291.998 64.956H321.398V80.636ZM242.998 80.636V123.364H282.394V80.636H242.998ZM405.251 80.636H314.111V64.956H405.251V80.636ZM368.795 104.352C374.283 104.352 380.424 105.855 387.219 108.86C394.144 111.865 401.07 116.112 407.995 121.6V129.832C403.814 126.043 399.371 123.037 394.667 120.816C389.963 118.595 385.39 117.484 380.947 117.484C373.238 117.484 366.312 119.117 360.171 122.384C354.03 125.52 349.195 129.897 345.667 135.516C342.139 141.004 340.375 147.211 340.375 154.136C340.375 159.493 342.139 165.504 345.667 172.168C349.326 178.701 353.703 184.255 358.799 188.828C364.026 193.271 368.926 195.492 373.499 195.492C376.504 195.492 379.444 194.055 382.319 191.18L394.667 201.372C391.923 204.247 387.611 205.684 381.731 205.684C373.368 205.684 364.94 202.287 356.447 195.492C347.954 188.697 340.963 180.269 335.475 170.208C330.118 160.016 327.439 150.281 327.439 141.004C327.439 134.601 329.334 128.591 333.123 122.972C337.043 117.353 342.204 112.845 348.607 109.448C355.01 106.051 361.739 104.352 368.795 104.352ZM493.554 80.636V178.244C493.554 181.119 495.644 184.516 499.826 188.436C504.138 192.225 509.103 195.557 514.722 198.432C520.471 201.176 525.306 202.548 529.226 202.548C531.055 202.548 532.884 202.025 534.714 200.98C536.543 199.935 538.111 198.497 539.418 196.668L553.726 205.88C550.067 209.931 546.016 211.956 541.574 211.956C533.864 211.956 524.914 209.343 514.722 204.116C504.66 198.889 495.971 192.748 488.654 185.692C481.336 178.505 477.678 172.495 477.678 167.66V153.744C474.672 157.141 471.144 159.755 467.094 161.584C463.174 163.413 459.123 164.328 454.942 164.328C447.232 164.328 439.784 162.237 432.598 158.056C425.542 153.744 419.792 148.387 415.35 141.984C411.038 135.581 408.882 129.375 408.882 123.364C408.882 118.529 410.384 114.021 413.39 109.84C416.526 105.659 420.642 102.392 425.738 100.04C430.834 97.5573 436.256 96.316 442.006 96.316C448.8 96.316 455.334 97.9493 461.606 101.216C467.878 104.483 473.17 109.056 477.482 114.936V80.636H397.71V64.956H477.874L493.554 80.636ZM516.29 80.636H502.374L486.89 64.956H516.29V80.636ZM455.53 108.664C449.911 108.664 444.554 109.905 439.458 112.388C434.492 114.871 430.442 118.203 427.306 122.384C424.17 126.435 422.602 130.747 422.602 135.32C422.602 139.632 424.692 143.552 428.874 147.08C433.055 150.477 437.563 152.176 442.398 152.176C449.192 152.176 455.791 150.412 462.194 146.884C468.596 143.356 473.692 138.521 477.482 132.38V123.756C474.607 119.183 471.144 115.524 467.094 112.78C463.174 110.036 459.319 108.664 455.53 108.664ZM607.454 80.636V178.244C607.454 181.119 609.545 184.516 613.726 188.436C618.038 192.225 623.069 195.557 628.818 198.432C634.567 201.176 639.402 202.548 643.322 202.548C646.981 202.548 650.378 200.588 653.514 196.668L667.822 205.88C664.033 209.931 659.851 211.956 655.278 211.956C647.83 211.956 639.01 209.343 628.818 204.116C618.626 199.02 609.806 192.944 602.358 185.888C594.91 178.701 591.186 172.56 591.186 167.464V138.652H551.79V152.764C551.79 154.071 551.398 155.116 550.614 155.9C549.83 156.684 548.785 157.076 547.478 157.076C545.126 157.076 541.402 155.116 536.306 151.196C531.341 147.276 526.767 142.964 522.586 138.26C518.405 133.425 516.314 129.832 516.314 127.48C516.314 126.304 516.837 125.324 517.882 124.54C519.058 123.756 520.43 123.364 521.998 123.364H535.522V80.636H509.062V64.956H591.578L607.454 80.636ZM630.19 80.636H616.47L600.79 64.956H630.19V80.636ZM551.79 80.636V123.364H591.186V80.636H551.79ZM641.532 260.564C619.449 237.697 603.835 226.264 594.688 226.264C588.024 226.264 579.727 227.309 569.796 229.4L559.604 215.092C560.257 214.961 562.805 214.635 567.248 214.112C571.56 213.72 576.591 213.524 582.34 213.524C592.14 213.524 602.397 217.901 613.112 226.656L647.216 256.252L641.532 260.564Z" fill="white"/>
</g>
<defs>
<filter id="filter0_d_518_2051" x="0.609375" y="0.957031" width="731.211" height="323.605" filterUnits="userSpaceOnUse" color-interpolation-filters="sRGB">
<feFlood flood-opacity="0" result="BackgroundImageFix"/>
<feColorMatrix in="SourceAlpha" type="matrix" values="0 0 0 0 0 0 0 0 0 0 0 0 0 0 0 0 0 0 127 0" result="hardAlpha"/>
<feOffset/>
<feGaussianBlur stdDeviation="32"/>
<feComposite in2="hardAlpha" operator="out"/>
<feColorMatrix type="matrix" values="0 0 0 0 1 0 0 0 0 1 0 0 0 0 1 0 0 0 0.3 0"/>
<feBlend mode="normal" in2="BackgroundImageFix" result="effect1_dropShadow_518_2051"/>
<feBlend mode="normal" in="SourceGraphic" in2="effect1_dropShadow_518_2051" result="shape"/>
</filter>
</defs>
</svg>
