<svg width="732" height="324" viewBox="0 0 732 324" fill="none" xmlns="http://www.w3.org/2000/svg">
<g filter="url(#filter0_d_885_1774)">
<path d="M244.516 204.924C240.857 208.975 236.741 211 232.168 211C224.589 211 215.704 208.387 205.512 203.16C195.32 197.933 186.5 191.792 179.052 184.736C171.735 177.549 168.076 171.343 168.076 166.116V138.48C164.287 139.525 160.824 140.048 157.688 140.048C149.587 140.048 141.093 136.977 132.208 130.836C128.549 135.932 124.041 139.721 118.684 142.204C113.457 144.556 107.773 145.732 101.632 145.732C99.4107 145.732 97.712 145.667 96.536 145.536C107.251 160.824 117.247 172.78 126.524 181.404C135.932 190.028 143.641 194.34 149.652 194.34C152.788 194.34 155.859 192.315 158.864 188.264L171.996 198.848C170.167 200.939 167.815 202.572 164.94 203.748C162.065 205.055 159.125 205.708 156.12 205.708C148.411 205.708 138.023 199.893 124.956 188.264C111.889 176.635 100.195 163.437 89.872 148.672C79.68 133.907 74.584 122.539 74.584 114.568C74.584 110.648 76.348 107.381 79.876 104.768C83.404 102.155 87.4547 100.848 92.028 100.848C96.6013 100.848 101.044 102.939 105.356 107.12C109.799 111.171 113.261 116.593 115.744 123.388C118.619 121.689 120.84 119.468 122.408 116.724C124.107 113.849 124.956 110.779 124.956 107.512C124.956 102.939 123.78 98.2347 121.428 93.4C119.076 88.4347 115.809 83.8613 111.628 79.68H64V64H106.924L121.428 79.68C125.871 84.5147 129.529 90.1333 132.404 96.536C135.409 102.808 136.977 108.819 137.108 114.568C137.108 117.835 136.455 121.297 135.148 124.956C138.807 127.308 143.249 128.484 148.476 128.484C155.009 128.484 161.543 126.916 168.076 123.78V79.68H130.444L115.94 64H168.468L184.344 79.68V177.288C184.344 180.163 186.435 183.56 190.616 187.48C194.797 191.269 199.697 194.601 205.316 197.476C211.065 200.22 215.9 201.592 219.82 201.592C223.609 201.592 227.072 199.632 230.208 195.712L244.516 204.924ZM193.164 79.68L177.484 64H206.884V79.68H193.164ZM92.028 131.228C98.8227 131.228 105.16 129.66 111.04 126.524C109.995 123.257 108.1 120.448 105.356 118.096C102.743 115.744 100.064 114.568 97.32 114.568C94.4453 114.568 91.7667 115.417 89.284 117.116C86.932 118.684 85.756 120.513 85.756 122.604C85.756 124.825 86.344 126.851 87.52 128.68C88.8267 130.379 90.3293 131.228 92.028 131.228Z" fill="white"/>
<path d="M298.053 79.68V177.288C298.053 180.163 300.144 183.56 304.325 187.48C308.637 191.269 313.668 194.601 319.417 197.476C325.166 200.22 330.001 201.592 333.921 201.592C337.58 201.592 340.977 199.632 344.113 195.712L358.421 204.924C354.632 208.975 350.45 211 345.877 211C338.429 211 329.609 208.387 319.417 203.16C309.225 198.064 300.405 191.988 292.957 184.932C285.509 177.745 281.785 171.604 281.785 166.508V137.696H242.389V151.808C242.389 153.115 241.997 154.16 241.213 154.944C240.429 155.728 239.384 156.12 238.077 156.12C235.725 156.12 232.001 154.16 226.905 150.24C221.94 146.32 217.366 142.008 213.185 137.304C209.004 132.469 206.913 128.876 206.913 126.524C206.913 125.348 207.436 124.368 208.481 123.584C209.657 122.8 211.029 122.408 212.597 122.408H226.121V79.68H199.661V64H282.177L298.053 79.68ZM320.789 79.68H307.069L291.389 64H320.789V79.68ZM242.389 79.68V122.408H281.785V79.68H242.389Z" fill="white"/>
<path d="M404.642 79.68H313.502V64H404.642V79.68ZM368.186 103.396C373.674 103.396 379.815 104.899 386.61 107.904C393.535 110.909 400.461 115.156 407.386 120.644V128.876C403.205 125.087 398.762 122.081 394.058 119.86C389.354 117.639 384.781 116.528 380.338 116.528C372.629 116.528 365.703 118.161 359.562 121.428C353.421 124.564 348.586 128.941 345.058 134.56C341.53 140.048 339.766 146.255 339.766 153.18C339.766 158.537 341.53 164.548 345.058 171.212C348.717 177.745 353.094 183.299 358.19 187.872C363.417 192.315 368.317 194.536 372.89 194.536C375.895 194.536 378.835 193.099 381.71 190.224L394.058 200.416C391.314 203.291 387.002 204.728 381.122 204.728C372.759 204.728 364.331 201.331 355.838 194.536C347.345 187.741 340.354 179.313 334.866 169.252C329.509 159.06 326.83 149.325 326.83 140.048C326.83 133.645 328.725 127.635 332.514 122.016C336.434 116.397 341.595 111.889 347.998 108.492C354.401 105.095 361.13 103.396 368.186 103.396Z" fill="white"/>
<path d="M492.944 79.68V177.288C492.944 180.163 495.035 183.56 499.216 187.48C503.528 191.269 508.494 194.601 514.112 197.476C519.862 200.22 524.696 201.592 528.616 201.592C530.446 201.592 532.275 201.069 534.104 200.024C535.934 198.979 537.502 197.541 538.808 195.712L553.116 204.924C549.458 208.975 545.407 211 540.964 211C533.255 211 524.304 208.387 514.112 203.16C504.051 197.933 495.362 191.792 488.044 184.736C480.727 177.549 477.068 171.539 477.068 166.704V152.788C474.063 156.185 470.535 158.799 466.484 160.628C462.564 162.457 458.514 163.372 454.332 163.372C446.623 163.372 439.175 161.281 431.988 157.1C424.932 152.788 419.183 147.431 414.74 141.028C410.428 134.625 408.272 128.419 408.272 122.408C408.272 117.573 409.775 113.065 412.78 108.884C415.916 104.703 420.032 101.436 425.128 99.084C430.224 96.6013 435.647 95.36 441.396 95.36C448.191 95.36 454.724 96.9933 460.996 100.26C467.268 103.527 472.56 108.1 476.872 113.98V79.68H397.1V64H477.264L492.944 79.68ZM515.68 79.68H501.764L486.28 64H515.68V79.68ZM454.92 107.708C449.302 107.708 443.944 108.949 438.848 111.432C433.883 113.915 429.832 117.247 426.696 121.428C423.56 125.479 421.992 129.791 421.992 134.364C421.992 138.676 424.083 142.596 428.264 146.124C432.446 149.521 436.954 151.22 441.788 151.22C448.583 151.22 455.182 149.456 461.584 145.928C467.987 142.4 473.083 137.565 476.872 131.424V122.8C473.998 118.227 470.535 114.568 466.484 111.824C462.564 109.08 458.71 107.708 454.92 107.708Z" fill="white"/>
<path d="M606.845 79.68V177.288C606.845 180.163 608.936 183.56 613.117 187.48C617.429 191.269 622.46 194.601 628.209 197.476C633.958 200.22 638.793 201.592 642.713 201.592C646.372 201.592 649.769 199.632 652.905 195.712L667.213 204.924C663.424 208.975 659.242 211 654.669 211C647.221 211 638.401 208.387 628.209 203.16C618.017 198.064 609.197 191.988 601.749 184.932C594.301 177.745 590.577 171.604 590.577 166.508V137.696H551.181V151.808C551.181 153.115 550.789 154.16 550.005 154.944C549.221 155.728 548.176 156.12 546.869 156.12C544.517 156.12 540.793 154.16 535.697 150.24C530.732 146.32 526.158 142.008 521.977 137.304C517.796 132.469 515.705 128.876 515.705 126.524C515.705 125.348 516.228 124.368 517.273 123.584C518.449 122.8 519.821 122.408 521.389 122.408H534.913V79.68H508.453V64H590.969L606.845 79.68ZM629.581 79.68H615.861L600.181 64H629.581V79.68ZM551.181 79.68V122.408H590.577V79.68H551.181Z" fill="white"/>
<path d="M640.923 259.608C618.84 236.741 603.226 225.308 594.079 225.308C587.415 225.308 579.118 226.353 569.187 228.444L558.995 214.136C559.648 214.005 562.196 213.679 566.639 213.156C570.951 212.764 575.982 212.568 581.731 212.568C591.531 212.568 601.788 216.945 612.503 225.7L646.607 255.296L640.923 259.608Z" fill="white"/>
</g>
<defs>
<filter id="filter0_d_885_1774" x="0" y="0" width="731.215" height="323.609" filterUnits="userSpaceOnUse" color-interpolation-filters="sRGB">
<feFlood flood-opacity="0" result="BackgroundImageFix"/>
<feColorMatrix in="SourceAlpha" type="matrix" values="0 0 0 0 0 0 0 0 0 0 0 0 0 0 0 0 0 0 127 0" result="hardAlpha"/>
<feOffset/>
<feGaussianBlur stdDeviation="32"/>
<feComposite in2="hardAlpha" operator="out"/>
<feColorMatrix type="matrix" values="0 0 0 0 1 0 0 0 0 1 0 0 0 0 1 0 0 0 0.3 0"/>
<feBlend mode="normal" in2="BackgroundImageFix" result="effect1_dropShadow_885_1774"/>
<feBlend mode="normal" in="SourceGraphic" in2="effect1_dropShadow_885_1774" result="shape"/>
</filter>
</defs>
</svg>
