<svg width="100" height="100" viewBox="0 0 100 100" fill="none" xmlns="http://www.w3.org/2000/svg">
<g clip-path="url(#clip0_910_1400)">
<path d="M50 9.00391C63.3594 9.00391 64.9414 9.0625 70.1953 9.29687C75.0781 9.51172 77.7148 10.332 79.4727 11.0156C81.7969 11.9141 83.4766 13.0078 85.2148 14.7461C86.9727 16.5039 88.0469 18.1641 88.9453 20.4883C89.6289 22.2461 90.4492 24.9023 90.6641 29.7656C90.8984 35.0391 90.957 36.6211 90.957 49.9609C90.957 63.3203 90.8984 64.9024 90.6641 70.1563C90.4492 75.0391 89.6289 77.6758 88.9453 79.4336C88.0469 81.7578 86.9531 83.4375 85.2148 85.1758C83.457 86.9336 81.7969 88.0078 79.4727 88.9063C77.7148 89.5899 75.0586 90.4102 70.1953 90.625C64.9219 90.8594 63.3398 90.918 50 90.918C36.6406 90.918 35.0586 90.8594 29.8047 90.625C24.9219 90.4102 22.2852 89.5899 20.5273 88.9063C18.2031 88.0078 16.5234 86.9141 14.7852 85.1758C13.0273 83.418 11.9531 81.7578 11.0547 79.4336C10.3711 77.6758 9.55078 75.0195 9.33594 70.1563C9.10156 64.8828 9.04297 63.3008 9.04297 49.9609C9.04297 36.6016 9.10156 35.0195 9.33594 29.7656C9.55078 24.8828 10.3711 22.2461 11.0547 20.4883C11.9531 18.1641 13.0469 16.4844 14.7852 14.7461C16.543 12.9883 18.2031 11.9141 20.5273 11.0156C22.2852 10.332 24.9414 9.51172 29.8047 9.29687C35.0586 9.0625 36.6406 9.00391 50 9.00391ZM50 0C36.4258 0 34.7266 0.0585937 29.3945 0.292969C24.082 0.527344 20.4297 1.38672 17.2656 2.61719C13.9648 3.90625 11.1719 5.60547 8.39844 8.39844C5.60547 11.1719 3.90625 13.9648 2.61719 17.2461C1.38672 20.4297 0.527344 24.0625 0.292969 29.375C0.0585938 34.7266 0 36.4258 0 50C0 63.5742 0.0585938 65.2734 0.292969 70.6055C0.527344 75.918 1.38672 79.5703 2.61719 82.7344C3.90625 86.0352 5.60547 88.8281 8.39844 91.6016C11.1719 94.375 13.9648 96.0938 17.2461 97.3633C20.4297 98.5938 24.0625 99.4531 29.375 99.6875C34.707 99.9219 36.4062 99.9805 49.9805 99.9805C63.5547 99.9805 65.2539 99.9219 70.5859 99.6875C75.8984 99.4531 79.5508 98.5938 82.7148 97.3633C85.9961 96.0938 88.7891 94.375 91.5625 91.6016C94.3359 88.8281 96.0547 86.0352 97.3242 82.7539C98.5547 79.5703 99.4141 75.9375 99.6484 70.625C99.8828 65.293 99.9414 63.5938 99.9414 50.0195C99.9414 36.4453 99.8828 34.7461 99.6484 29.4141C99.4141 24.1016 98.5547 20.4492 97.3242 17.2852C96.0937 13.9648 94.3945 11.1719 91.6016 8.39844C88.8281 5.625 86.0352 3.90625 82.7539 2.63672C79.5703 1.40625 75.9375 0.546875 70.625 0.3125C65.2734 0.0585938 63.5742 0 50 0Z" fill="white"/>
<path d="M50 24.3164C35.8203 24.3164 24.3164 35.8203 24.3164 50C24.3164 64.1797 35.8203 75.6836 50 75.6836C64.1797 75.6836 75.6836 64.1797 75.6836 50C75.6836 35.8203 64.1797 24.3164 50 24.3164ZM50 66.6602C40.8008 66.6602 33.3398 59.1992 33.3398 50C33.3398 40.8008 40.8008 33.3398 50 33.3398C59.1992 33.3398 66.6602 40.8008 66.6602 50C66.6602 59.1992 59.1992 66.6602 50 66.6602Z" fill="white"/>
<path d="M82.6953 23.3008C82.6953 26.6211 80 29.2969 76.6992 29.2969C73.3789 29.2969 70.7031 26.6016 70.7031 23.3008C70.7031 19.9805 73.3984 17.3047 76.6992 17.3047C80 17.3047 82.6953 20 82.6953 23.3008Z" fill="white"/>
</g>
<defs>
<clipPath id="clip0_910_1400">
<rect width="100" height="100" fill="white"/>
</clipPath>
</defs>
</svg>
