<svg width="100" height="100" viewBox="0 0 100 100" fill="none" xmlns="http://www.w3.org/2000/svg">
<g clip-path="url(#clip0_910_1396)">
<path d="M92.5977 0H7.38281C3.30078 0 0 3.22266 0 7.20703V92.7734C0 96.7578 3.30078 100 7.38281 100H92.5977C96.6797 100 100 96.7578 100 92.793V7.20703C100 3.22266 96.6797 0 92.5977 0ZM29.668 85.2148H14.8242V37.4805H29.668V85.2148ZM22.2461 30.9766C17.4805 30.9766 13.6328 27.1289 13.6328 22.3828C13.6328 17.6367 17.4805 13.7891 22.2461 13.7891C26.9922 13.7891 30.8398 17.6367 30.8398 22.3828C30.8398 27.1094 26.9922 30.9766 22.2461 30.9766ZM85.2148 85.2148H70.3906V62.0117C70.3906 56.4844 70.293 49.3555 62.6758 49.3555C54.9609 49.3555 53.7891 55.3906 53.7891 61.6211V85.2148H38.9844V37.4805H53.2031V44.0039H53.3984C55.3711 40.2539 60.2148 36.2891 67.4219 36.2891C82.4414 36.2891 85.2148 46.1719 85.2148 59.0234V85.2148V85.2148Z" fill="white"/>
</g>
<defs>
<clipPath id="clip0_910_1396">
<rect width="100" height="100" fill="white"/>
</clipPath>
</defs>
</svg>
