<svg width="100" height="100" viewBox="0 0 100 100" fill="none" xmlns="http://www.w3.org/2000/svg">
<path d="M99.0039 30C99.0039 30 98.0273 23.1055 95.0195 20.0781C91.2109 16.0938 86.9531 16.0742 85 15.8398C71.0156 14.8242 50.0195 14.8242 50.0195 14.8242H49.9805C49.9805 14.8242 28.9844 14.8242 15 15.8398C13.0469 16.0742 8.78906 16.0938 4.98047 20.0781C1.97266 23.1055 1.01562 30 1.01562 30C1.01562 30 0 38.1055 0 46.1914V53.7695C0 61.8555 0.996094 69.9609 0.996094 69.9609C0.996094 69.9609 1.97266 76.8555 4.96094 79.8828C8.76953 83.8672 13.7695 83.7305 15.9961 84.1602C24.0039 84.9219 50 85.1563 50 85.1563C50 85.1563 71.0156 85.1172 85 84.1211C86.9531 83.8867 91.2109 83.8672 95.0195 79.8828C98.0273 76.8555 99.0039 69.9609 99.0039 69.9609C99.0039 69.9609 100 61.875 100 53.7695V46.1914C100 38.1055 99.0039 30 99.0039 30ZM39.668 62.9687V34.8633L66.6797 48.9648L39.668 62.9687Z" fill="white"/>
</svg>
